# xmcd
#
# Track frame offsets:
#	150
#	13079
#	22060
#	37508
#	52782
#	70748
#	80198
#	95159
#	107465
#	119151
#	131472
#	142796
#	153310
#	161559
#	171686
#	183448
#
# Disc length: 2633 seconds
#
# Revision: 0
# Processed by: cddbd v1.5.2PL0 Copyright (c) Steve Scherf et al.
# Submitted via: audiograbber 1.83.01
#
DISCID=d30a4710
DTITLE=Elvis Presley - CD04 - Lonesome Cowboy
DYEAR=1957
DGENRE=Rock and Roll
TTITLE0=Elvis Presley - Playing for Keeps
TTITLE1=Elvis Presley - All Shook Up
TTITLE2=Elvis Presley - That's When Your Heartaches Begin
TTITLE3=Elvis Presley - Peace In The Valley
TTITLE4=Elvis Presley - It's No Secret
TTITLE5=Elvis Presley - I Believe
TTITLE6=Elvis Presley - Take My Hand Precious Lord
TTITLE7=Elvis Presley - I Need You So
TTITLE8=Elvis Presley - Have I Told You Lately That I Love You
TTITLE9=Elvis Presley - Blueberry Hill
TTITLE10=Elvis Presley - Is It So Strange
TTITLE11=Elvis Presley - Mean Woman Blues
TTITLE12=Elvis Presley - Teddy Bear
TTITLE13=Elvis Presley - Loving You
TTITLE14=Elvis Presley - Got A Lot O' Livin' To Do
TTITLE15=Elvis Presley - Lonesome Cowboy
EXTD=
EXTT0=
EXTT1=
EXTT2=
EXTT3=
EXTT4=
EXTT5=
EXTT6=
EXTT7=
EXTT8=
EXTT9=
EXTT10=
EXTT11=
EXTT12=
EXTT13=
EXTT14=
EXTT15=
PLAYORDER=
